# xmcd
#
# Track frame offsets: 
#        150
#        16475
#        30634
#        69624
#        82553
#        93544
#        107892
#        122814
#        135927
#        150149
#        164311
#        175798
#        190498
#        205104
#        218748
#        232151
#        245328
#        259884
#        274061
#        287345
#
# Disc length: 4007 seconds
#
# Revision: 0
# Processed by: cddbd v1.5.2PL0 Copyright (c) Steve Scherf et al.
# Submitted via: ExactAudioCopy v1.1
#
DISCID=0c0fa514
DTITLE=Various Artist - Oorlogsjaren Hits - CD 1
DYEAR=2019
DGENRE=Oldies
TTITLE0=Glenn Miller Orchestra - In The Mood
TTITLE1=The Andrews Sisters - Rum And Coca Cola
TTITLE2=Benny Goodman - Sing Sing Sing (With A Swing)
TTITLE3=Judy Garland - Over The Rainbow
TTITLE4=Peggy Lee - Why Don't You Do Right (Get Me Some Money Too)
TTITLE5=Tommy Dorsey and Frank Sinatra - I'll Never Smile Again
TTITLE6=Fred Astaire - Cheek To Cheek
TTITLE7=Duke Ellington - Take The "A" Train
TTITLE8=Bing Crosby - Only Forever
TTITLE9=Perry Como - Till The End Of Time
TTITLE10=Charles Trenet - Boum
TTITLE11=Django Reinhardt - Nuages
TTITLE12=Lucienne Boyer - Mon Cœur Est Un Violon
TTITLE13=Lupita Palomera - Perfidia
TTITLE14=The Ink Spots - I Don't Want To Set The World On Fire
TTITLE15=Swing and Sway With Sammy Kaye - Daddy
TTITLE16=Billie Holiday - Trav'lin' Light
TTITLE17=Chick Webb's Savoy Orchestra - Stomping At The Savoy
TTITLE18=Rina Ketty - J'Attendrai
TTITLE19=Georges Ulmer - Pigalle
EXTD=
EXTT0=
EXTT1=
EXTT2=
EXTT3=
EXTT4=
EXTT5=
EXTT6=
EXTT7=
EXTT8=
EXTT9=
EXTT10=
EXTT11=
EXTT12=
EXTT13=
EXTT14=
EXTT15=
EXTT16=
EXTT17=
EXTT18=
EXTT19=
PLAYORDER=
